<svg id="svg" version="1.1" xmlns="http://www.w3.org/2000/svg" xmlns:xlink="http://www.w3.org/1999/xlink" width="400" height="117.09658068386322" viewBox="0, 0, 400,117.09658068386322"><g id="svgg"><path id="path0" d="M195.574 29.418 C 177.773 31.465,166.416 45.841,169.175 62.833 C 170.921 73.589,179.176 82.288,190.506 85.314 C 201.537 88.260,215.104 85.306,221.317 78.607 L 221.716 78.176 219.837 76.379 C 217.544 74.187,217.920 74.285,216.469 75.504 C 204.175 85.835,183.131 81.438,176.963 67.250 C 172.445 56.859,175.826 45.083,185.100 38.902 C 194.759 32.465,208.971 33.195,216.975 40.539 L 217.700 41.204 218.391 40.553 C 218.772 40.196,219.673 39.337,220.394 38.646 L 221.705 37.389 220.798 36.530 C 214.943 30.993,205.364 28.292,195.574 29.418 M200.803 46.250 C 187.168 48.544,186.150 65.692,199.427 69.433 C 203.967 70.713,210.204 69.336,213.265 66.379 C 214.413 65.269,214.540 65.544,211.818 63.239 C 209.037 60.885,209.191 60.942,208.181 61.887 C 204.585 65.251,199.155 63.663,198.323 59.005 C 197.298 53.269,203.834 50.070,208.327 54.109 C 209.073 54.780,209.206 54.843,209.461 54.643 C 210.922 53.497,214.094 50.739,214.133 50.581 C 214.207 50.280,212.458 48.756,211.137 47.971 C 208.377 46.331,204.328 45.656,200.803 46.250 " stroke="none" fill="#040404" fill-rule="evenodd"></path><path id="path1" d="M199.089 3.474 C 198.818 3.626,198.493 3.844,198.369 3.958 C 198.245 4.073,198.042 4.167,197.919 4.167 C 197.795 4.167,197.669 4.223,197.639 4.292 C 197.608 4.360,197.133 4.642,196.583 4.917 C 196.033 5.192,195.546 5.454,195.500 5.500 C 195.454 5.546,195.060 5.769,194.625 5.997 C 194.190 6.224,193.833 6.456,193.833 6.512 C 193.833 6.568,193.542 6.701,193.186 6.808 C 192.831 6.914,192.446 7.114,192.333 7.251 C 192.219 7.388,192.023 7.500,191.896 7.500 C 191.770 7.500,191.667 7.569,191.667 7.653 C 191.667 7.738,191.442 7.856,191.167 7.917 C 190.892 7.977,190.667 8.096,190.667 8.180 C 190.667 8.264,190.564 8.333,190.439 8.333 C 190.314 8.333,190.027 8.479,189.801 8.656 C 189.575 8.834,189.190 9.030,188.945 9.091 C 188.700 9.153,188.500 9.253,188.500 9.315 C 188.500 9.376,188.294 9.521,188.042 9.637 C 187.197 10.023,186.833 10.245,186.833 10.373 C 186.833 10.443,186.747 10.500,186.642 10.500 C 186.373 10.500,184.667 11.378,184.667 11.517 C 184.667 11.579,184.461 11.682,184.210 11.745 C 183.959 11.808,183.715 11.910,183.668 11.972 C 183.622 12.033,183.133 12.308,182.583 12.583 C 182.033 12.858,181.546 13.121,181.500 13.167 C 181.454 13.213,181.060 13.436,180.625 13.663 C 180.190 13.890,179.833 14.126,179.833 14.187 C 179.833 14.248,179.649 14.344,179.423 14.400 C 179.197 14.457,178.566 14.765,178.020 15.085 C 177.474 15.405,176.946 15.667,176.847 15.667 C 176.748 15.667,176.667 15.737,176.667 15.822 C 176.667 15.908,176.498 16.030,176.292 16.095 C 176.085 16.159,175.879 16.258,175.833 16.314 C 175.787 16.371,175.300 16.642,174.750 16.917 C 174.200 17.192,173.725 17.473,173.694 17.542 C 173.664 17.610,173.538 17.667,173.415 17.667 C 173.291 17.667,173.090 17.760,172.967 17.875 C 172.843 17.990,172.088 18.416,171.288 18.823 C 170.488 19.229,169.833 19.617,169.833 19.684 C 169.833 19.752,169.608 19.856,169.333 19.917 C 169.058 19.977,168.833 20.082,168.833 20.149 C 168.833 20.216,168.571 20.374,168.250 20.500 C 167.929 20.626,167.667 20.784,167.667 20.851 C 167.667 20.918,167.442 21.023,167.167 21.083 C 166.892 21.144,166.667 21.246,166.667 21.310 C 166.667 21.374,166.460 21.521,166.208 21.637 C 165.363 22.023,165.000 22.245,165.000 22.373 C 165.000 22.443,164.907 22.500,164.794 22.500 C 164.501 22.500,162.833 23.363,162.833 23.514 C 162.833 23.583,162.608 23.690,162.333 23.750 C 162.058 23.810,161.833 23.914,161.833 23.980 C 161.833 24.046,161.571 24.195,161.250 24.311 C 160.929 24.427,160.667 24.584,160.667 24.659 C 160.667 24.735,160.461 24.849,160.210 24.912 C 159.959 24.975,159.715 25.077,159.668 25.138 C 159.622 25.200,159.227 25.436,158.792 25.663 C 158.356 25.890,158.000 26.134,158.000 26.205 C 158.000 26.276,157.907 26.333,157.794 26.333 C 157.506 26.333,155.833 27.194,155.833 27.343 C 155.833 27.409,155.628 27.515,155.377 27.578 C 155.126 27.642,154.882 27.745,154.835 27.809 C 154.788 27.873,154.375 28.119,153.917 28.356 C 152.349 29.167,151.917 29.417,151.861 29.542 C 151.831 29.610,151.705 29.667,151.581 29.667 C 151.458 29.667,151.258 29.764,151.137 29.882 C 151.016 30.000,150.673 30.197,150.375 30.319 L 149.833 30.540 149.833 58.502 L 149.833 86.464 150.279 86.576 C 150.523 86.637,150.908 86.833,151.134 87.010 C 151.360 87.188,151.647 87.333,151.772 87.333 C 151.898 87.333,152.000 87.402,152.000 87.487 C 152.000 87.571,152.225 87.690,152.500 87.750 C 152.775 87.810,153.000 87.913,153.000 87.978 C 153.000 88.120,154.701 89.000,154.975 89.000 C 155.080 89.000,155.167 89.057,155.167 89.127 C 155.167 89.255,155.530 89.477,156.375 89.863 C 156.627 89.979,156.833 90.124,156.833 90.185 C 156.833 90.247,157.034 90.347,157.279 90.409 C 157.523 90.470,157.908 90.666,158.134 90.844 C 158.360 91.021,158.647 91.167,158.772 91.167 C 158.898 91.167,159.000 91.236,159.000 91.320 C 159.000 91.404,159.225 91.523,159.500 91.583 C 159.775 91.644,160.000 91.750,160.000 91.819 C 160.000 91.971,161.668 92.833,161.961 92.833 C 162.074 92.833,162.167 92.903,162.167 92.989 C 162.167 93.074,162.332 93.197,162.534 93.261 C 162.736 93.325,163.004 93.480,163.129 93.605 C 163.255 93.731,163.464 93.833,163.595 93.833 C 163.726 93.833,163.833 93.896,163.833 93.973 C 163.833 94.050,164.133 94.212,164.500 94.333 C 164.867 94.454,165.167 94.611,165.167 94.682 C 165.167 94.753,165.332 94.863,165.534 94.927 C 165.736 94.992,166.004 95.147,166.129 95.272 C 166.255 95.397,166.464 95.500,166.595 95.500 C 166.726 95.500,166.833 95.569,166.833 95.653 C 166.833 95.738,167.058 95.856,167.333 95.917 C 167.608 95.977,167.833 96.091,167.833 96.169 C 167.833 96.248,168.096 96.407,168.417 96.523 C 168.738 96.639,169.000 96.788,169.000 96.854 C 169.000 96.920,169.225 97.023,169.500 97.083 C 169.775 97.144,170.000 97.251,170.000 97.322 C 170.000 97.394,170.619 97.771,171.375 98.161 C 173.267 99.138,173.736 99.399,173.835 99.528 C 173.882 99.590,174.126 99.692,174.377 99.755 C 174.628 99.818,174.833 99.931,174.833 100.007 C 174.833 100.083,175.096 100.240,175.417 100.356 C 175.737 100.472,176.000 100.619,176.000 100.682 C 176.000 100.745,176.205 100.849,176.457 100.912 C 176.708 100.975,176.952 101.077,176.998 101.138 C 177.128 101.309,177.698 101.656,178.208 101.876 C 178.460 101.984,178.667 102.124,178.667 102.185 C 178.667 102.247,178.867 102.347,179.112 102.409 C 179.357 102.470,179.742 102.666,179.968 102.844 C 180.194 103.021,180.481 103.167,180.606 103.167 C 180.731 103.167,180.833 103.236,180.833 103.320 C 180.833 103.404,181.058 103.523,181.333 103.583 C 181.608 103.644,181.833 103.757,181.833 103.836 C 181.833 103.914,182.096 104.073,182.417 104.189 C 182.737 104.305,183.000 104.454,183.000 104.520 C 183.000 104.586,183.225 104.690,183.500 104.750 C 183.775 104.810,184.000 104.915,184.000 104.982 C 184.000 105.049,184.655 105.437,185.455 105.844 C 186.255 106.251,187.010 106.677,187.133 106.792 C 187.256 106.906,187.464 107.000,187.595 107.000 C 187.726 107.000,187.834 107.056,187.834 107.125 C 187.834 107.194,188.303 107.475,188.875 107.750 C 189.448 108.025,190.016 108.344,190.137 108.458 C 190.258 108.573,190.464 108.667,190.595 108.667 C 190.726 108.667,190.833 108.736,190.833 108.820 C 190.833 108.904,191.058 109.023,191.333 109.083 C 191.608 109.144,191.833 109.250,191.833 109.319 C 191.833 109.471,193.501 110.333,193.794 110.333 C 193.907 110.333,194.000 110.391,194.000 110.462 C 194.000 110.532,194.356 110.776,194.792 111.003 C 195.227 111.231,195.622 111.467,195.668 111.528 C 195.715 111.590,195.959 111.692,196.210 111.755 C 196.461 111.818,196.667 111.931,196.667 112.007 C 196.667 112.083,196.929 112.240,197.250 112.356 C 197.571 112.472,197.833 112.619,197.833 112.682 C 197.833 112.745,198.039 112.849,198.290 112.912 C 198.541 112.975,198.785 113.078,198.832 113.142 C 199.200 113.644,200.667 114.077,200.667 113.685 C 200.667 113.603,200.854 113.489,201.083 113.432 C 201.313 113.374,201.500 113.253,201.500 113.163 C 201.500 113.074,201.607 113.000,201.738 113.000 C 201.869 113.000,202.077 112.899,202.201 112.775 C 202.325 112.651,202.699 112.460,203.033 112.350 C 203.367 112.240,203.730 112.041,203.840 111.908 C 203.951 111.775,204.144 111.667,204.270 111.667 C 204.397 111.667,204.500 111.598,204.500 111.513 C 204.500 111.429,204.725 111.310,205.000 111.250 C 205.275 111.190,205.500 111.071,205.500 110.987 C 205.500 110.902,205.615 110.833,205.755 110.833 C 205.896 110.833,206.054 110.721,206.106 110.583 C 206.159 110.446,206.293 110.333,206.404 110.333 C 206.515 110.333,207.051 110.099,207.594 109.813 C 208.138 109.526,208.751 109.207,208.957 109.104 C 209.163 109.001,209.331 108.866,209.332 108.805 C 209.333 108.743,209.558 108.644,209.833 108.583 C 210.108 108.523,210.333 108.418,210.333 108.351 C 210.333 108.284,210.596 108.126,210.917 108.000 C 211.237 107.874,211.500 107.716,211.500 107.649 C 211.500 107.582,211.725 107.477,212.000 107.417 C 212.275 107.356,212.500 107.238,212.500 107.153 C 212.500 107.069,212.607 107.000,212.738 107.000 C 212.869 107.000,213.075 106.901,213.196 106.781 C 213.318 106.661,213.862 106.352,214.407 106.094 C 214.951 105.837,215.501 105.523,215.627 105.397 C 215.754 105.270,215.964 105.167,216.095 105.167 C 216.226 105.167,216.333 105.098,216.333 105.013 C 216.333 104.929,216.558 104.810,216.833 104.750 C 217.108 104.690,217.333 104.577,217.333 104.500 C 217.333 104.422,217.591 104.274,217.906 104.170 C 218.221 104.066,218.502 103.929,218.531 103.866 C 218.560 103.802,218.958 103.563,219.417 103.333 C 219.875 103.104,220.287 102.879,220.333 102.833 C 220.379 102.787,220.867 102.525,221.417 102.250 C 221.967 101.975,222.454 101.704,222.500 101.647 C 222.546 101.591,222.752 101.492,222.958 101.428 C 223.165 101.364,223.333 101.241,223.333 101.155 C 223.333 101.070,223.440 101.000,223.571 101.000 C 223.702 101.000,223.912 100.897,224.038 100.772 C 224.163 100.647,224.450 100.487,224.674 100.417 C 224.899 100.347,225.282 100.149,225.526 99.978 C 225.769 99.807,226.050 99.667,226.151 99.667 C 226.251 99.667,226.333 99.598,226.333 99.513 C 226.333 99.429,226.558 99.310,226.833 99.250 C 227.108 99.190,227.333 99.085,227.333 99.018 C 227.333 98.951,227.596 98.793,227.917 98.667 C 228.237 98.541,228.500 98.385,228.500 98.320 C 228.500 98.256,228.705 98.151,228.957 98.088 C 229.208 98.025,229.452 97.923,229.498 97.862 C 229.628 97.691,230.198 97.344,230.708 97.124 C 230.960 97.016,231.167 96.876,231.167 96.815 C 231.167 96.753,231.368 96.652,231.615 96.590 C 231.861 96.528,232.267 96.333,232.516 96.156 C 232.764 95.978,233.050 95.833,233.151 95.833 C 233.251 95.833,233.333 95.764,233.333 95.680 C 233.333 95.596,233.558 95.477,233.833 95.417 C 234.108 95.356,234.333 95.238,234.333 95.153 C 234.333 95.069,234.437 95.000,234.563 95.000 C 234.689 95.000,234.886 94.888,234.999 94.751 C 235.113 94.614,235.497 94.414,235.853 94.308 C 236.209 94.201,236.500 94.051,236.500 93.974 C 236.500 93.896,236.601 93.833,236.724 93.833 C 236.848 93.833,237.122 93.683,237.333 93.500 C 237.545 93.317,237.819 93.167,237.942 93.167 C 238.066 93.167,238.167 93.100,238.167 93.018 C 238.167 92.936,238.373 92.818,238.625 92.755 C 238.877 92.692,239.196 92.543,239.333 92.423 C 239.471 92.304,239.752 92.155,239.958 92.092 C 240.165 92.029,240.333 91.914,240.333 91.835 C 240.333 91.757,240.558 91.644,240.833 91.583 C 241.108 91.523,241.333 91.406,241.333 91.323 C 241.333 91.241,241.521 91.126,241.750 91.068 C 241.979 91.011,242.167 90.916,242.167 90.857 C 242.167 90.798,242.653 90.525,243.248 90.250 C 243.842 89.975,244.330 89.694,244.331 89.625 C 244.332 89.556,244.440 89.500,244.571 89.500 C 244.702 89.500,244.909 89.406,245.030 89.292 C 245.151 89.177,245.719 88.858,246.291 88.583 C 246.864 88.308,247.333 88.035,247.333 87.976 C 247.333 87.918,247.521 87.822,247.750 87.765 C 247.979 87.707,248.167 87.593,248.167 87.510 C 248.167 87.427,248.392 87.310,248.667 87.250 C 248.942 87.190,249.167 87.085,249.167 87.018 C 249.167 86.951,249.429 86.793,249.750 86.667 L 250.333 86.438 250.333 58.465 L 250.333 30.492 249.904 30.329 C 249.668 30.239,249.363 30.053,249.226 29.916 C 249.088 29.779,248.869 29.667,248.738 29.667 C 248.607 29.667,248.500 29.598,248.500 29.513 C 248.500 29.429,248.275 29.310,248.000 29.250 C 247.725 29.190,247.500 29.071,247.500 28.987 C 247.500 28.902,247.418 28.833,247.317 28.833 C 247.217 28.833,246.936 28.693,246.692 28.522 C 246.449 28.351,246.063 28.153,245.833 28.083 C 245.604 28.013,245.379 27.909,245.333 27.853 C 245.222 27.715,244.678 27.377,244.167 27.127 C 243.938 27.015,243.713 26.877,243.667 26.819 C 243.621 26.762,243.283 26.618,242.917 26.501 C 242.550 26.383,242.190 26.184,242.117 26.060 C 242.043 25.935,241.875 25.833,241.742 25.833 C 241.609 25.833,241.500 25.764,241.500 25.680 C 241.500 25.596,241.275 25.477,241.000 25.417 C 240.725 25.356,240.500 25.238,240.500 25.153 C 240.500 25.069,240.418 25.000,240.317 25.000 C 240.217 25.000,239.931 24.855,239.682 24.678 C 239.433 24.501,239.028 24.305,238.782 24.243 C 238.535 24.181,238.333 24.064,238.333 23.982 C 238.333 23.900,238.232 23.833,238.109 23.833 C 237.985 23.833,237.711 23.683,237.500 23.500 C 237.289 23.317,237.015 23.167,236.891 23.167 C 236.768 23.167,236.667 23.107,236.667 23.033 C 236.667 22.960,236.388 22.800,236.048 22.677 C 235.707 22.553,235.327 22.351,235.203 22.226 C 235.078 22.102,234.869 22.000,234.738 22.000 C 234.607 22.000,234.498 21.944,234.497 21.875 C 234.495 21.806,234.084 21.563,233.583 21.333 C 233.083 21.104,232.672 20.866,232.670 20.805 C 232.668 20.743,232.404 20.606,232.083 20.500 C 231.762 20.394,231.500 20.244,231.500 20.167 C 231.500 20.090,231.275 19.977,231.000 19.917 C 230.725 19.856,230.500 19.743,230.500 19.665 C 230.500 19.586,230.331 19.470,230.125 19.405 C 229.919 19.341,229.713 19.236,229.667 19.172 C 229.621 19.108,229.138 18.847,228.593 18.591 C 228.049 18.336,227.499 18.023,227.373 17.897 C 227.246 17.770,227.036 17.667,226.905 17.667 C 226.774 17.667,226.667 17.598,226.667 17.513 C 226.667 17.429,226.442 17.310,226.167 17.250 C 225.892 17.190,225.667 17.076,225.667 16.998 C 225.667 16.919,225.404 16.760,225.083 16.644 C 224.762 16.528,224.500 16.379,224.500 16.313 C 224.500 16.247,224.275 16.144,224.000 16.083 C 223.725 16.023,223.500 15.913,223.500 15.840 C 223.500 15.766,223.369 15.657,223.208 15.597 C 223.048 15.537,222.392 15.190,221.750 14.827 C 221.108 14.464,220.377 14.075,220.125 13.963 C 219.873 13.852,219.667 13.708,219.667 13.643 C 219.667 13.579,219.442 13.477,219.167 13.417 C 218.892 13.356,218.667 13.252,218.667 13.185 C 218.667 13.117,218.404 12.959,218.083 12.833 C 217.762 12.707,217.500 12.552,217.500 12.487 C 217.500 12.422,217.295 12.318,217.043 12.255 C 216.792 12.192,216.548 12.090,216.502 12.028 C 216.375 11.861,215.871 11.568,214.667 10.962 C 214.071 10.662,213.484 10.323,213.363 10.208 C 213.242 10.094,213.042 10.000,212.919 10.000 C 212.795 10.000,212.669 9.944,212.639 9.875 C 212.608 9.806,212.133 9.525,211.583 9.250 C 211.033 8.975,210.546 8.712,210.500 8.667 C 210.454 8.621,210.043 8.396,209.586 8.167 C 209.130 7.938,208.655 7.656,208.533 7.542 C 208.410 7.427,208.212 7.333,208.092 7.333 C 207.972 7.333,207.785 7.226,207.676 7.094 C 207.566 6.962,207.257 6.806,206.988 6.747 C 206.720 6.688,206.500 6.571,206.500 6.487 C 206.500 6.402,206.399 6.333,206.276 6.333 C 206.152 6.333,205.878 6.183,205.667 6.000 C 205.455 5.817,205.181 5.667,205.058 5.667 C 204.934 5.667,204.833 5.600,204.833 5.518 C 204.833 5.436,204.633 5.319,204.388 5.258 C 204.143 5.196,203.758 5.001,203.532 4.823 C 203.306 4.645,203.019 4.500,202.894 4.500 C 202.769 4.500,202.667 4.433,202.667 4.351 C 202.667 4.270,202.461 4.151,202.210 4.088 C 201.959 4.025,201.715 3.923,201.668 3.862 C 201.182 3.222,199.888 3.027,199.089 3.474 M204.083 29.415 C 211.026 30.201,216.627 32.585,220.798 36.530 L 221.705 37.389 220.394 38.646 C 219.673 39.337,218.772 40.196,218.391 40.553 L 217.700 41.204 216.975 40.539 C 208.971 33.195,194.759 32.465,185.100 38.902 C 175.826 45.083,172.445 56.859,176.963 67.250 C 183.131 81.438,204.175 85.835,216.469 75.504 C 217.920 74.285,217.544 74.187,219.837 76.379 L 221.716 78.176 221.317 78.607 C 215.104 85.306,201.537 88.260,190.506 85.314 C 179.176 82.288,170.921 73.589,169.175 62.833 C 165.916 42.766,182.424 26.963,204.083 29.415 M206.000 46.245 C 209.379 46.763,214.412 49.446,214.133 50.581 C 214.094 50.739,210.922 53.497,209.461 54.643 C 209.206 54.843,209.073 54.780,208.327 54.109 C 203.834 50.070,197.298 53.269,198.323 59.005 C 199.155 63.663,204.585 65.251,208.181 61.887 C 209.191 60.942,209.037 60.885,211.818 63.239 C 214.540 65.544,214.413 65.269,213.265 66.379 C 207.449 71.997,195.586 70.640,191.638 63.904 C 186.237 54.688,194.533 44.487,206.000 46.245 " stroke="none" fill="#fb3444" fill-rule="evenodd"></path></g></svg>