<?xml version="1.0" encoding="utf-8"?>
<!-- Generator: Adobe Illustrator 25.4.1, SVG Export Plug-In . SVG Version: 6.00 Build 0)  -->
<svg version="1.1" xmlns="http://www.w3.org/2000/svg" xmlns:xlink="http://www.w3.org/1999/xlink" x="0px" y="0px"
	 viewBox="0 0 750 500" style="enable-background:new 0 0 750 500;" xml:space="preserve">
<style type="text/css">
	.st0{display:none;}
	.st1{opacity:0.5;fill:#9DCEBE;}
	.st2{display:inline;}
	.st3{fill:#F3B2A7;}
	.st4{opacity:0.24;fill:#F3B2A7;}
	.st5{display:inline;fill:#FFF9E2;}
	.st6{display:inline;fill:#221E1F;}
	.st7{display:inline;fill:#F3B2A7;}
	.st8{display:inline;opacity:0.64;fill:#F3B2A7;}
	.st9{fill:#F9E4B9;}
	.st10{display:inline;fill:#006E58;}
	.st11{display:inline;opacity:0.65;fill:#006E58;}
	.st12{fill:#024386;}
	.st13{display:inline;opacity:0.24;fill:#F3B2A7;}
	.st14{display:inline;fill:#F9E4B9;}
	.st15{display:inline;fill:#024386;}
	.st16{display:inline;opacity:0.55;fill:#024386;}
	.st17{opacity:0.33;fill:#F3B2A7;}
	.st18{display:inline;opacity:0.33;fill:#F3B2A7;}
	.st19{display:inline;fill:#FA9900;}
	.st20{display:inline;opacity:0.74;fill:#F3B2A7;}
	.st21{display:inline;opacity:0.27;fill:#F3B2A7;}
	.st22{fill:#667EA2;}
	.st23{opacity:0.09;fill:#667EA2;}
	.st24{display:inline;fill:#667EA2;}
	.st25{clip-path:url(#SVGID_00000078019832386939243780000013347501501173282992_);fill:#024386;}
	.st26{display:inline;opacity:0.42;fill:#667EA2;}
	.st27{display:inline;opacity:0.58;fill:#F3B2A7;}
	.st28{fill:#A1B84E;}
	.st29{display:inline;opacity:0.1;fill:#024386;}
	.st30{display:inline;opacity:0.36;fill:#024386;}
	.st31{display:inline;fill:#BD262B;}
	.st32{display:inline;fill:#EA9883;}
	.st33{display:inline;opacity:0.69;fill:#F3B2A7;}
	.st34{opacity:0.27;fill:#F3B2A7;}
</style>
<g id="BACKGROUND" class="st0">
</g>
<g id="OBJECTS">
	<path class="st1" d="M178.9,441.13c34.53,2.73,70.52-0.58,106.16-1.08c91.34-1.28,182.78-2.96,274.05,1.8
		c36.66,1.91,75.68,0.11,107.62-20.07c34.83-22.01,54.63-62.47,61.11-103.15c6.77-42.52,5.98-95.58-9.73-135.82
		C662.57,40.66,475.95,52.63,365.61,114.77c-23.22,13.08-47.29,26.75-73.78,31.72c-27.58,5.18-48.83-8.04-73.56-18.14
		c-34.58-14.12-74.64-15.17-109.28-1.19C-3,172.36-8.33,328.84,76.77,402C107.78,428.66,142.53,438.25,178.9,441.13z"/>
	<g class="st0">
		<g class="st2">
			<path class="st3" d="M461.17,248.4l2.05-11.66l-29.35-46.81c-0.96-1.18-1.67-2.54-2.11-3.99l-15.23-50.99l-14.66-0.08l8.58,57.15
				c0.99,6.82,3.05,13.44,6.1,19.62l35.67,61.26L461.17,248.4z"/>
			<g>
				<path class="st3" d="M419.37,143.65c0,0-3.08-7.03-3.62-12.91c-0.55-5.88,0.41-7.38-0.03-12.41c-0.44-5.03,0.6-12.84-0.19-12.94
					c-0.8-0.11-3.68-0.21-4.1,3.43c-0.42,3.64-1.16,7.39-1.16,7.39l-7.3-14.97c0,0-2.82-5.92-5.04-4.59
					c-2.26,1.36,4.84,12.62,3.99,13.25c-1.23,0.91-5.68-5.87-5.68-5.87s-4.51-7.48-6.75-6.19c-2.24,1.29,6.77,13.25,6.77,13.25
					s1.07,2.24-0.53,1.87c-1.6-0.37-8.04-10.41-10.29-9.66c-2.24,0.75,4.19,8.65,4.19,8.65s4.29,4.06,2.36,4.81
					c-1.92,0.75-8.36-6.29-9.64-5.01c-1.28,1.29,4.08,6.46,6.33,8.14c2.25,1.68,4.93,4.67,6.33,7.45s3.35,6.42,6.76,7.27l3.11,10.03
					L419.37,143.65z"/>
				<path class="st4" d="M409.93,116.7c0,0-2.81,7.4-1.99,10.49l-2.47-4.54C405.47,122.65,408.71,118.53,409.93,116.7z"/>
			</g>
		</g>
		<path class="st5" d="M501.24,252.77c0,0-8.87-26.07-23.83-26.68c-17.54-0.71-40.3-36.16-40.3-36.16l-16.22-54.98l-22.61,5.27
			c0,0,4.85,52.13,10.42,67.73c7.75,21.73,47.81,72.34,47.81,72.34L501.24,252.77z"/>
		<path class="st6" d="M500.43,167.52l0.81-13.26c0,0-21.61-0.46-28.27,20.96c-6.78,21.83-1.95,50.45-1.95,50.45l19.04,5.98
			l0.46-59.06L500.43,167.52z"/>
		<path class="st6" d="M498.15,167.52l2.26-13.26c0,0,18.99,1.4,24.08,19.84c6.02,21.83,4.06,52.2,4.06,52.2l-17.8,5.35l-2.7-59.06
			L498.15,167.52z"/>
		<polygon class="st6" points="495.91,196.4 521.89,190.02 524.17,235.71 476.73,231.65 478.28,187.85 		"/>
		<g class="st2">
			<path class="st3" d="M535.98,251.57l-2.05-11.66l28.46-35.28c0.96-1.18,2.56-14.07,2.99-15.53l15.23-50.99l14.66-0.08
				l-8.58,57.15c-0.99,6.82-3.05,13.44-6.1,19.62l-35.67,61.26L535.98,251.57z"/>
			<g>
				<path class="st3" d="M577.79,146.82c0,0,3.08-7.03,3.62-12.91c0.55-5.88-0.41-7.38,0.03-12.41c0.44-5.03-0.6-12.84,0.19-12.94
					s3.68-0.21,4.1,3.43s1.16,7.39,1.16,7.39l7.3-14.97c0,0,2.82-5.92,5.04-4.59c2.26,1.36-4.84,12.62-3.99,13.25
					c1.23,0.91,5.68-5.87,5.68-5.87s4.51-7.48,6.75-6.19c2.24,1.29-6.77,13.25-6.77,13.25s-1.07,2.24,0.53,1.87
					c1.61-0.37,8.04-10.41,10.29-9.66c2.24,0.75-4.19,8.65-4.19,8.65s-4.29,4.06-2.36,4.81s8.36-6.29,9.64-5.01
					c1.28,1.29-4.08,6.46-6.33,8.14c-2.25,1.68-4.93,4.67-6.33,7.45c-1.4,2.78-3.35,6.42-6.76,7.27l-3.11,10.03L577.79,146.82z"/>
				<path class="st4" d="M587.23,119.87c0,0,2.81,7.4,1.99,10.49l2.47-4.54C591.69,125.82,588.45,121.71,587.23,119.87z"/>
			</g>
		</g>
		<path class="st5" d="M495.91,255.94c0,0,18.94-29.09,33.9-29.7c17.54-0.71,31.35-26.43,31.35-26.43l15.1-61.69l22.61,5.27
			c0,0-4.85,52.13-10.42,67.73c-7.75,21.73-49.04,73.45-49.04,73.45L495.91,255.94z"/>
		<path class="st7" d="M485.89,196.65v27.16c0,0,12.46,4.27,19.74,3.52c7.27-0.76,7.83-5.31,7.83-5.31l-1.24-25.37H485.89z"/>
		<path class="st8" d="M490.28,203.89l-3.59,6.22c0,0,9.98,12.67,26.76,11.91l-0.84-22.85L490.28,203.89z"/>
		<path class="st5" d="M469.73,224.27c-12.47-1.16-19.96,85.95-6.13,131.33c0,0,20.65,0.08,22.82-0.55
			c2.17-0.63,7.15,4.36,17.62,0.28c0,0,25.24,9.36,27.04,2.8c16.46-59.8,5.59-132.13,5.59-132.13S501.24,227.19,469.73,224.27z"/>
		<g class="st2">
			<path class="st9" d="M484.89,218.95c0,0,6.66,5.16,14.38,5.64c0,0-1.51,11.39-10.46,11.11c-8.95-0.28-13.63-10.4-13.63-10.4
				L484.89,218.95z"/>
			<path class="st9" d="M513.65,218.95c0,0-6.66,5.16-14.38,5.64c0,0,1.51,10.27,10.46,9.99c8.95-0.28,13.63-8.16,13.63-8.16
				L513.65,218.95z"/>
		</g>
		<path class="st10" d="M574.06,443.09c-0.19-0.57-0.38,0.57-0.56,0c-7.67-23.37-13.34-63.11-23.78-84.78
			c-10.44-21.67-24.45-23.59-24.45-23.59l0,0l-38.1,6.66l-19.32-4.45l-3.24-3.32c0,0-12,6.7-23.58,27.78
			c-11.58,21.08-18.14,58.79-27.04,81.71c-0.29,0.74-0.58-0.75-0.88,0H574.06z"/>
		<path class="st11" d="M573.5,443.09c-7.67-23.37-13.34-63.11-23.78-84.78c-10.44-21.67-24.45-23.59-24.45-23.59l-6.01,1.05
			c3.9,3.59,8.34,9.05,12.18,17.25c-0.11,0.38-16.77,59.9-11.88,53.17c4.9-6.75,12.43-25.08,12.58-9.48
			c0.15,15.6-28.93,49.12-20.82,46.38c8.11-2.74,18.83-12.89,18.5-9.53c-0.33,3.36-6.46,9.53-6.46,9.53h23.02h10.95h16.73
			C573.87,442.52,573.69,443.65,573.5,443.09z"/>
		<g class="st2">
			<path class="st12" d="M484.89,217.84c0,0,6.66,5.16,14.38,5.64c0,0-1.51,11.39-10.46,11.11c-8.95-0.28-13.63-10.4-13.63-10.4
				L484.89,217.84z"/>
			<path class="st12" d="M513.65,217.84c0,0-6.66,5.16-14.38,5.64c0,0,1.51,10.27,10.46,9.99c8.95-0.28,13.63-8.16,13.63-8.16
				L513.65,217.84z"/>
		</g>
		<path class="st7" d="M478.07,181.66c0.63-12.69,7.16-23.8,22.11-23.26c22.99,0.83,23.51,39.18,11.77,51.51
			c-7.12,7.47-19.55,7.08-25.27,0.2C480.87,203.11,477.56,191.87,478.07,181.66z"/>
		<path class="st13" d="M518.02,178.1c-1.28-4.9-2.44-9.67-5.14-13.31l-11.61,6.18c0,0-1.59,9.92-0.94,14.84
			c1.44,10.94,5.51,10.4,2.31,13.68c-2.59,2.65,2.12,8.97-0.39,15.76c4.06-0.76,10.51-5.41,12.34-8.9
			C519.26,197.4,520.88,189.09,518.02,178.1z"/>
		<path class="st6" d="M517.37,189.05"/>
		<path class="st6" d="M508.34,160.11c0,0,3.29-6.97-13.79-2.84c-17.08,4.13-17.82,24.58-17.82,24.58l34.22-0.23l1.56-12.29
			l1.46,12.35l3.23,0.07C519.44,164.2,508.34,160.11,508.34,160.11z"/>
		<path class="st7" d="M482.34,183.2c0,0-2.58-6.13-6.27-1.84c-3.7,4.28,1.06,16.39,7.94,10.95"/>
		<path class="st7" d="M516.61,183.2c0,0,2.58-6.13,6.27-1.84c3.7,4.28-1.06,16.39-7.94,10.95"/>
		<path class="st13" d="M516.61,183.2c0,0,2.58-6.13,6.27-1.84c3.7,4.28-1.06,16.39-7.94,10.95"/>
		<path class="st10" d="M455.92,324.74c0,0,46.63,9.51,82.43,0v15.99c0,0-28.15,13.93-82.43,0V324.74z"/>
		<path class="st14" d="M437.4,203.89c-2.37,2.57-0.29-13.96-0.29-13.96l4.13,5.4C441.25,195.33,439.56,201.55,437.4,203.89z"/>
		<path class="st14" d="M561.28,212.13c1.25-1.9-0.12-12.88-0.12-12.88l-3.82,6.25C557.34,205.5,560.03,214.03,561.28,212.13z"/>
		<polygon class="st14" points="422.19,232.75 457.64,265.08 455.62,279.62 		"/>
		<polygon class="st14" points="573.61,239.57 540.51,268.43 539.17,284.43 		"/>
		<g class="st2">
			<path class="st9" d="M505.2,257.19c0.77,2.19-0.74,4.72-3.37,5.65c-2.63,0.92-5.39-0.11-6.16-2.3c-0.77-2.19,0.74-4.72,3.37-5.65
				C501.67,253.96,504.43,254.99,505.2,257.19z"/>
			<path class="st9" d="M505.24,278.76c-0.72,2.21-3.46,3.3-6.11,2.44c-2.65-0.87-4.22-3.36-3.5-5.57c0.72-2.21,3.46-3.3,6.11-2.44
				C504.39,274.06,505.96,276.55,505.24,278.76z"/>
			<path class="st9" d="M504.94,293.25c1.05,2.08-0.12,4.78-2.61,6.04c-2.49,1.26-5.36,0.6-6.41-1.48
				c-1.05-2.08,0.12-4.78,2.61-6.04C501.02,290.52,503.89,291.18,504.94,293.25z"/>
			<path class="st9" d="M505.24,315.44c-0.72,2.21-3.46,3.3-6.11,2.44c-2.65-0.87-4.22-3.36-3.5-5.57c0.72-2.21,3.46-3.3,6.11-2.44
				C504.39,310.73,505.96,313.23,505.24,315.44z"/>
		</g>
		<g class="st2">
			<path class="st12" d="M504.08,256.07c0.77,2.19-0.74,4.72-3.37,5.65c-2.63,0.92-5.39-0.11-6.16-2.3
				c-0.77-2.19,0.74-4.72,3.37-5.65C500.55,252.84,503.31,253.87,504.08,256.07z"/>
			<path class="st12" d="M504.12,277.64c-0.72,2.21-3.46,3.3-6.11,2.44c-2.65-0.87-4.22-3.36-3.5-5.57c0.72-2.21,3.46-3.3,6.11-2.44
				C503.27,272.94,504.84,275.43,504.12,277.64z"/>
			<path class="st12" d="M503.82,292.14c1.05,2.07-0.12,4.78-2.61,6.04c-2.49,1.26-5.36,0.6-6.41-1.48
				c-1.05-2.08,0.12-4.78,2.61-6.04C499.91,289.4,502.77,290.06,503.82,292.14z"/>
			<path class="st12" d="M504.12,314.32c-0.72,2.21-3.46,3.3-6.11,2.44c-2.65-0.87-4.22-3.36-3.5-5.57c0.72-2.21,3.46-3.3,6.11-2.44
				C503.27,309.61,504.84,312.11,504.12,314.32z"/>
		</g>
		<path class="st11" d="M455.92,324.74c0,0,46.63,9.51,82.43,0v15.99c0,0-28.15,13.93-82.43,0V324.74z"/>
	</g>
	<g class="st0">
		<g class="st2">
			<path class="st3" d="M183.75,116.55c0,0,0.99-8.84,3.85-15.06c2.86-6.22,4.69-7.17,7.16-12.47c2.47-5.3,8.04-12.54,7.3-13.1
				c-0.74-0.57-3.58-2.34-6.11,1.07c-2.53,3.41-5.45,6.75-5.45,6.75l1.34-19.26c0,0,0.6-7.58-2.4-7.52
				c-3.06,0.05-2.45,15.47-3.68,15.61c-1.76,0.2-2.3-9.18-2.3-9.18s-0.19-10.12-3.19-10.12c-3-0.01-0.88,17.22-0.88,17.22
				s-0.22,2.87-1.62,1.57c-1.4-1.3-2.04-15.11-4.73-15.66c-2.69-0.54-0.81,11.12-0.81,11.12s1.95,6.55-0.41,6.2
				c-2.37-0.36-4.74-11.16-6.77-10.61c-2.03,0.55,0.35,8.84,1.64,11.84s2.24,7.55,2.03,11.14c-0.21,3.6-0.36,8.38,2.58,11.21
				l-2.69,11.87L183.75,116.55z"/>
			<path class="st4" d="M189.89,84.02c0,0-7.11,5.81-8.07,9.38l0.15-5.99C181.96,87.42,187.6,85.16,189.89,84.02z"/>
		</g>
		<path class="st15" d="M212.23,351.08l-8.9,4.71c0,0-5.24,50.64,2.09,87.29h41.65l6.01-48.28l7.33,48.28h43.99
			c0,0,11-66.35-9.95-100.91C273.5,307.62,212.23,351.08,212.23,351.08z"/>
		<path class="st16" d="M296.31,359.04c0,0-3.67-2.52-14.48-3.31l1.39,4.29c2.45,7.6,3.59,15.54,3.57,23.52
			c-0.01,3.55,0.23,7.12,1.04,9.12c2.04,5,5.76,16.97,5.76,16.97l12.87-12.43l-1.14-28.17L296.31,359.04z"/>
		<path class="st5" d="M190.37,101.9l2.13,76.36c0,0,12.76,22.37,26.34,28.5c13.64,6.15-10.67,81.01-21.14,69.21
			c-9.38-10.58-30.08-59.23-37.49-77.83c-2.34-5.86-3.21-12.19-2.57-18.47l9.26-79.7L190.37,101.9z"/>
		<path class="st7" d="M309.95,372.02l1.2,19.27c0.12,1.89-0.35,3.77-1.34,5.39l-5.63,9.18c-0.67,1.1-1.6,2.02-2.71,2.68
			c-1.83,1.1-4.69,2.76-6.24,3.31c-1.22,0.44-1.58-0.85-1.64-2.22c-0.07-1.58,0.62-3.09,1.81-4.13l2.78-2.42
			c0.46-0.4,0.78-0.95,0.9-1.55l2.06-10.36c0.11-0.53-0.12-1.08-0.57-1.38l-1.3-0.86c-0.82-0.54-1.92-0.05-2.07,0.91l-1.31,8.35
			c-0.2,1.27-1.79,1.74-2.64,0.77l-1.05-1.19c-0.51-0.58-0.86-1.29-1.02-2.05l-1.83-9.03c-0.33-1.62-0.08-3.31,0.71-4.76l5.81-10.72
			L309.95,372.02z"/>
		<path class="st6" d="M272.91,159.97c0,0,4.25,13.42,1.36,21.16l-0.93-1.49c0,0,0.47,6.34-2.52,9.14l-0.84-1.77
			c0,0-1.92,6.12-3.15,8.02l-0.58-1.31l-2.37,6.51l-10.21-3.33l-2.41-9.22c0,0,5.12-15.42,5.77-15.92
			C257.68,171.25,272.91,159.97,272.91,159.97z"/>
		<path class="st5" d="M266.04,210.71c0,0,7.73-3.14,20.38-0.97s19.83,12.06,30.27,47.77s9.89,53.84,9.89,53.84l-9.93,64.37
			l-24.13-3.36v-67.61L266.04,210.71z"/>
		<path class="st6" d="M225.1,159.97c0,0-4.25,13.42-1.36,21.16l0.93-1.49c0,0-0.47,6.34,2.52,9.14l0.84-1.77
			c0,0,1.92,6.12,3.15,8.02l0.58-1.31l2.37,6.51l10.21-3.33l2.41-9.22c0,0-5.12-15.42-5.77-15.92
			C240.33,171.25,225.1,159.97,225.1,159.97z"/>
		<path class="st7" d="M237.61,187.94l-1.79-1.59l-0.31,11.38c-0.06,2.34-1.54,4.41-3.74,5.22l0,0c-3.71,1.38-4.16,6.46-0.73,8.44
			c4.85,2.79,11.42,5.53,17.96,4.97c6.97-0.6,13.71-3.03,18.38-5.1c2.57-1.14,2.54-4.81-0.04-5.92l0,0
			c-2.05-0.89-3.4-2.88-3.46-5.11l-0.41-15.49L237.61,187.94z"/>
		<path class="st5" d="M235.5,208.5c0,0,47.45-9.26,57.06,14.09c9.61,23.34,3.46,88.89,3.46,88.89l3.1,48.06c0,0-10.3-8.92-31.81,0
			c-21.51,8.92-61.18,28.89-68.86,4.81c-8.73-27.4-1.1-73.1,0-133.19C198.65,220.3,198.43,200.95,235.5,208.5z"/>
		<path class="st14" d="M226.17,212.18c0,0,19.3,7.9,38.2,4.73c2.47-0.41,4.78-1.63,6.33-3.6c0.9-1.14,1.64-2.59,1.79-4.37
			c0.44-5.1-11.52,0-11.52,0L226.17,212.18z"/>
		<path class="st5" d="M230.34,197.96c6.52-2.6,8.27,3.82,28.47-0.19c4.24-0.84,10.9-1.88,13.28,2.87c1.17,2.33,0.4,8.31,2.39,9.48
			c3.08,1.81-6.43,3.27-9.64,3.72c-10.69,1.5-21.66,1.66-32.36,0.2c-2.62-0.37-11.57-0.96-9.76-3.27
			C228.71,203.13,224.66,200.23,230.34,197.96z"/>
		<path class="st14" d="M241.27,191.9l-5.71,3.87c0,0,3.31,10.71,14.97,10.92c9.33,0.17,14.79-15.86,14.79-15.86L241.27,191.9z"/>
		<g class="st2">
			<path class="st3" d="M226.34,162.1c1.51-13.94,9.42-25.76,25.86-24.2c25.27,2.4,23.37,44.68,9.65,57.5
				c-8.32,7.77-21.99,6.54-27.85-1.41C228.05,185.9,225.12,173.31,226.34,162.1z"/>
			<path class="st17" d="M270.57,160.75c-1.09-5.48-2.07-10.81-4.81-15l-13.19,6.06c0,0-2.39,10.83-2,16.29
				c0.89,12.14,5.4,11.81,1.66,15.21c-3.02,2.75,1.76,10.01-1.45,17.34c4.52-0.58,11.55-4.48,13.69-8.28
				C269.94,182.67,273.02,173.04,270.57,160.75z"/>
		</g>
		<path class="st6" d="M266.83,150.13c0,0-7.95,4.71-18.58,4.6c-10.63-0.11-15.01-3.54-17.94-6.29c-2.93-2.75-5.36-8.55-5.17-12.96
			c0.2-4.41,0.63-1.08,3.34,1.18c2.71,2.26,2.42-0.67,0.95-3.35c-1.46-2.68-1.46-6.01,0.29-4.93c1.75,1.08,5.17,4.84,7.6,4.73
			c2.44-0.11-2.05-2.04-1.17-3.33c0.88-1.29,2.83,3.12,9.65,3.33c6.82,0.22,15.4,0,19.79,3.98
			C269.99,141.08,266.83,150.13,266.83,150.13z"/>
		<path class="st6" d="M258.33,144.32c0,0-0.39,8.36,7.15,14.03c4.77,3.59,6.05,13.39,6.05,13.39l0.69-1.07c0,0,2.61-1.5,2.61-7.07
			c0-5.57-0.84-8.89-0.84-8.89s1.58,4.82,1.58,3.32c0-1.5,0.75-2.68-1.21-6.11c-1.96-3.43-1.4-3.34-1.4-3.34l2.33,2.37
			c0,0-1.77-4.64-3.51-7.5c-2.5-4.12-6.38-6.03-10.85-5.7C256.47,138.09,258.33,144.32,258.33,144.32z"/>
		<path class="st6" d="M238.48,144.46c0,0-0.92,8.44-7.15,14.32c-6.67,6.28-5.26,14.43-5.26,14.43l-1.48-1.86
			c0,0-2.61-1.53-2.61-7.21c0-5.68,0.84-9.07,0.84-9.07s-1.58,4.92-1.58,3.39c0-1.53-0.75-2.73,1.21-6.23s1.4-3.4,1.4-3.4
			l-2.33,2.42c0,0,1.77-4.73,3.51-7.65c2.5-4.2,6.38-6.15,10.85-5.82C240.35,138.09,238.48,144.46,238.48,144.46z"/>
		<path class="st7" d="M229.98,166.17c0,0-1.58-4.08-4.85-3.5c-4.7,0.84-5.77,14.4,3.57,14.4"/>
		<path class="st7" d="M268.07,166.17c0,0,1.58-4.08,4.85-3.5c4.7,0.84,5.77,14.4-3.58,14.4"/>
		<path class="st18" d="M268.07,166.17c0,0,1.58-4.08,4.85-3.5c4.7,0.84,5.77,14.4-3.58,14.4"/>
		<polygon class="st14" points="189.16,194.3 192.66,178.13 195.83,182.86 		"/>
		<path class="st14" d="M171.07,224.06l29.19,34.15l-2.54,17.77C197.71,275.97,176.42,243.46,171.07,224.06z"/>
		<polygon class="st14" points="292.69,357.11 296.31,304.97 285.39,248.77 290.28,304.75 281.83,355.73 		"/>
		<path class="st16" d="M244.85,378.31c0,0-1.71,11.77-2.28,15.69c-3.93,26.68-14.52,31.42-11.23,31.42c3.29,0,6.66,0,6.66,0
			l-8.48,17.67h6.57h3.65h7.33l6.01-48.28L244.85,378.31z"/>
	</g>
	<g class="st0">
		<path class="st19" d="M334.31,218.08l-6.65-2.74c0,0,3.14-16.24,27.19-21.43c28.02-6.05,34.9-1.64,43.95,9.56"/>
		<path class="st7" d="M353.94,190.49l-1.93-1.42l0.73,11.36c0.15,2.34-1.14,4.53-3.25,5.54l-8.04,3.84c0,0,13.84,10.19,26.42,7.94
			c12.58-2.25,23.82-10.49,23.82-10.49l-6.56-2.15c-2.12-0.7-3.64-2.56-3.91-4.78l-1.82-15.39L353.94,190.49z"/>
		<path class="st20" d="M353.94,190.49l-1.46,5.92c0,0,7.28,8.97,17.41,9.11c10.13,0.14,12.54-2.28,12.54-2.28s-1.47-2.5-2.45-15.38
			L353.94,190.49z"/>
		<path class="st6" d="M366.94,140.75c0,0,14.53-8.47,18.2-1.75c3.67,6.72,0.48,6.99,3.95,11.02c2.76,3.2,3.62,7.4,1.24,12.43
			c-1.82,3.85-1.5,8.4,0.73,12.04c0.03,0.05,0.06,0.11,0.1,0.16c6.08,6.93-1.82,16.41-6.11,16.02c-8.16-0.74-10.61,2.63-10.14,4.82
			c0.48,2.19-17.65-1.41-17.65-1.41s-8.24,2.3-12.04,2c-3.8-0.3-9.02-1.6-9.12-6.79c-0.1-5.19,5.73-7.75,1.47-11.07
			c-4.26-3.31-10.55-11.96-5.44-19.02c5.94-8.2,16.16-11.62,16.16-11.62L366.94,140.75z"/>
		<path class="st7" d="M341.47,165.71c0.23-13.19,6.63-24.94,22.17-24.89c23.89,0.09,25.72,39.88,13.96,53.07
			c-7.13,8-20.05,8.01-26.22,1.06C345.11,187.88,341.29,176.33,341.47,165.71z"/>
		<path class="st21" d="M382.81,160.67c-1.49-5.05-2.86-9.96-5.79-13.64l-11.85,6.81c0,0-1.32,10.35-0.48,15.44
			c1.87,11.3,6.07,10.6,2.86,14.12c-2.6,2.84,2.51,9.23,0.13,16.37c4.19-0.93,10.62-4.5,12.18-8.3
			C383.61,182.29,386.16,171.98,382.81,160.67z"/>
		<g class="st2">
			<polygon class="st22" points="385.34,353.78 385.34,405.91 374.42,443.09 338.33,443.09 335.54,361.59 339.9,333.4 
				365.13,331.39 380.44,340.2 			"/>
			<polygon class="st23" points="385.34,353.78 385.34,405.91 374.42,443.09 338.33,443.09 335.54,361.59 339.9,333.4 
				365.13,331.39 380.44,340.2 			"/>
		</g>
		<path class="st6" d="M378.33,140.53c0,0-3.9,15.66-9.7,15.37c-5.8-0.29-8.43-1.82-10.18,0.2c-1.76,2.02-0.86,7.08-5.45,7.63
			c-4.58,0.55-7.18-2.07-8.94,1.19c-1.76,3.27-8.67,7.57-10.35,3.52c-1.68-4.05-0.17,4.01-0.17,4.01s-6.9-8.22-1.04-14.96
			c4.36-5.02,1.68-5.93,1.99-10.73c0.31-4.8,4.09-8.47,11.35-8.61c7.26-0.14,8.7-8.36,15.53-6.29s5.52,4.23,10.3,3.34
			c4.78-0.89,10.43-0.94,13.47,3.79C388.18,143.74,378.33,140.53,378.33,140.53z"/>
		<path class="st24" d="M418.18,317.23c0,0,10.28,21.57,11.73,52.13c1.45,30.56-2.56,73.73-2.56,73.73h-42l-8.59-111.93l-0.07,0.24
			L418.18,317.23z"/>
		<g class="st2">
			<path class="st3" d="M417.01,140.63c0,0-6.32-5.27-12.2-7.59c-5.89-2.32-7.72-1.78-12.76-3.74c-5.04-1.95-13.38-3.22-13.25-4.07
				c0.13-0.85,0.89-3.85,4.76-3.2c3.87,0.66,7.95,1.02,7.95,1.02l-13.21-11.99c0,0-5.25-4.67-3.21-6.55
				c2.07-1.92,11.53,8.76,12.44,8.06c1.31-0.99-4.34-7.6-4.34-7.6s-6.34-6.87-4.35-8.8c2-1.92,11.61,10.92,11.61,10.92
				s1.99,1.78,2.09,0.01c0.1-1.76-8.31-11.39-6.86-13.47c1.45-2.08,7.65,6.9,7.65,6.9s2.89,5.62,4.24,3.87s-3.98-10.48-2.27-11.41
				c1.71-0.93,5.42,6.13,6.48,8.94c1.06,2.82,3.33,6.47,5.77,8.73c2.44,2.27,5.6,5.36,5.45,9.13l9.39,6.2L417.01,140.63z"/>
			<path class="st4" d="M392.11,122.85c0,0,8.46-0.67,11.39,1.09l-3.93-3.9C399.56,120.05,394.36,122.15,392.11,122.85z"/>
		</g>
		<path class="st7" d="M345.78,167.92c0,0-2.11-6.8-6.49-2.62c-4.39,4.18-0.58,17.58,7.32,12.51"/>
		<path class="st6" d="M385.7,168.16c0,0,0.27-6.48-2.97-6.34c-4.1,0.18-4.75-2.91-4.52-6.41c0.39-5.84-5.55,2.35-11.7,0.32
			c-3.8-1.26-2.44-8.46-2.44-8.46l3.79-5.29l12.79-0.82l6.87,10.04L385.7,168.16z"/>
		<g class="st2">
			<path class="st3" d="M381.9,164.93c0,0,0.82-6.03,5.1-3.12s2.97,14.73-4.41,11.57"/>
			<path class="st4" d="M381.9,164.93c0,0,0.82-6.03,5.1-3.12s2.97,14.73-4.41,11.57"/>
		</g>
		<path class="st5" d="M343.75,209.19c0,0,9.09,7.16,25.47,3.57c16.38-3.6,17.13-7.25,17.13-7.25l14.03,4.13l8.79,16.3
			c0,0,6.59,13.98,6.59,15.18c0,1.2-3.6,19.57-3.6,19.57l5.79,64.32c0,0-10.29,13.74-37.1,17.34c-26.81,3.6-43.51-6.55-43.51-6.55
			v-47.94v-36.75v-31.16l-1.68-9.99L343.75,209.19z"/>
		<path class="st7" d="M278.51,353l-12.48,14.73c-1.22,1.44-1.97,3.23-2.14,5.12l-0.98,10.73c-0.12,1.29,0.08,2.58,0.57,3.77
			c0.81,1.98,2.11,5.01,3.02,6.38c0.72,1.08,1.78,0.26,2.64-0.8c0.99-1.22,1.35-2.85,1.02-4.39l-0.78-3.6
			c-0.13-0.6-0.06-1.23,0.21-1.78l4.54-9.54c0.23-0.49,0.74-0.79,1.29-0.76l1.55,0.09c0.98,0.05,1.57,1.1,1.11,1.97l-3.95,7.48
			c-0.6,1.14,0.4,2.46,1.66,2.2l1.56-0.33c0.76-0.16,1.46-0.52,2.04-1.03l6.86-6.15c1.23-1.1,2.04-2.61,2.28-4.25l1.75-12.06
			L278.51,353z"/>
		<g class="st2">
			<defs>
				<path id="SVGID_1_" d="M343.75,209.19c0,0,9.09,7.16,25.47,3.57c16.38-3.6,17.13-7.25,17.13-7.25l14.03,4.13l8.79,16.3
					c0,0,6.59,13.98,6.59,15.18c0,1.2-3.6,19.57-3.6,19.57l5.79,64.32c0,0-10.29,13.98-37.1,17.58c-26.81,3.6-43.51-6.79-43.51-6.79
					v-47.94v-36.75v-31.16l-1.68-9.99L343.75,209.19z"/>
			</defs>
			<clipPath id="SVGID_00000037652352451397040880000004209868452659106454_">
				<use xlink:href="#SVGID_1_"  style="overflow:visible;"/>
			</clipPath>
			<path style="clip-path:url(#SVGID_00000037652352451397040880000004209868452659106454_);fill:#024386;" d="M332.07,226.06
				c0,0,24.26,8.84,73.55-2.79v25.87c0,0-32.8,13.69-73.55,3.92V226.06z"/>
			<path style="clip-path:url(#SVGID_00000037652352451397040880000004209868452659106454_);fill:#024386;" d="M334.46,268.77
				c0,0,24.26,8.84,73.55-2.79v25.87c0,0-32.8,13.69-73.55,3.92V268.77z"/>
			<path style="clip-path:url(#SVGID_00000037652352451397040880000004209868452659106454_);fill:#024386;" d="M336.86,312.68
				c0,0,24.26,8.84,73.55-2.79v25.87c0,0-32.8,13.69-73.55,3.92V312.68z"/>
		</g>
		<path class="st19" d="M384.45,203.46c0,0-1.82,2.41-0.19,16.09c1.63,13.68-1.92,25.69-0.48,39.7c1.44,14.01-4.27,28.02,2.42,45.7
			s6.9,62.71,6.9,62.71l2.8,6c0,0,28.36-0.33,39.36-9.34c0,0,1.33-15.68-1.67-28.02c-3-12.34-11.68-33.69-12.34-49.54
			s0.83-37.15,0.83-37.15l-11.5-34.74l6-18.48C416.58,196.4,404.23,207.46,384.45,203.46z"/>
		<path class="st19" d="M394.3,211.54l4.25-6.61c8.69-5.6,20.67-13.25,25.72-22.28l4.65-8.31l-26.69-39.54
			c0,0,12.09-8.34,15.72-15.68c0,0,28.31,18.5,39.66,35.94l7.01,12.83c0,0,1.67,49.97-51.37,88.67L394.3,211.54z"/>
		<path class="st19" d="M341.45,209.81c0,0,5.41,5.39,8.41,17.74c3,12.34,7.34,27.69,7.67,44.7c0.33,17.01,0,45.03,0,53.71
			c0,8.67,4.13,51.71,4.13,51.71s-29.15,1.33-33.49-5.34c0,0,3.67-32.69,4-41.37c0.33-8.67,0.33-15.01,0.67-29.36
			c0.33-14.34-5-30.69-4.67-41.03c0.33-10.34-7.67-36.36-7.67-36.36S329.03,208.76,341.45,209.81z"/>
		<path class="st19" d="M335.66,224.21l-8-8.88c0,0-10.82,4.21-13.49,22.22c-2.67,18.01-10.67,57.71-10.67,57.71
			s-7.01,8.67-10.01,14.68c-3,6-19.01,44.37-19.01,44.37s12.34,9.34,18.68,9.67c0,0,34.98-40.03,42.51-54.71
			C343.19,294.6,335.66,224.21,335.66,224.21z"/>
		<path class="st19" d="M393.1,205.51l5.7-2.05c0,0-1.65,2.88-3.84,6.3c-1.68,2.63-6.04,9.71-8.85,17.31L393.1,205.51z"/>
		<path class="st19" d="M333.55,214.43l-5.89,1.43c0,0,5.97,3.5,9.2,6.69c2.22,2.19,6.94,5.89,12.28,13.18L333.55,214.43z"/>
		<path class="st19" d="M351.28,204.63c-4.05,14.82-0.51,26.04,1.2,33.54c0,0-11.03-18.67-24.82-22.83
			C327.66,215.34,354.77,191.89,351.28,204.63z"/>
		<path class="st19" d="M381.91,201.25c3.15,10.59,2.66,30.95,2.66,30.95s4.61-16.58,7.33-20.67c5.03-7.57,6.9-8.07,6.9-8.07
			S378.49,189.76,381.91,201.25z"/>
		<path class="st19" d="M352.48,198.28c0,0-6.69,3.64-3.07,19.8c0,0-0.19-10.84,1.87-13.45
			C351.28,204.63,353.58,201.61,352.48,198.28z"/>
		<path class="st19" d="M380.76,196.4c0,0,0.26,5.5,1.68,6.84l1.15,6.72C383.59,209.96,384.96,201.16,380.76,196.4z"/>
		<polygon class="st19" points="332.67,266.59 332.67,314.34 318.31,333.79 327.66,305.54 		"/>
		<path class="st19" d="M443.64,225.08c0,0-20.53,11.99-24.61,19.04c-5.5,9.5,2.08,38.04,2.08,38.04l0.96-32.56
			C422.08,249.61,436.48,236.24,443.64,225.08z"/>
		<polygon class="st19" points="436.04,187.85 429.04,174.35 426.57,178.76 		"/>
		<polygon class="st19" points="303.49,295.27 310.73,289.66 304.05,292.47 		"/>
		<polygon class="st26" points="379.17,364.06 383.1,417.35 374.42,443.09 367.03,443.09 		"/>
	</g>
	<g class="st0">
		<path class="st6" d="M177.99,188.84l3.03-18.95c0,0,13.15,25.65,2.97,51.42c0,0-4.37,20.39-3.84,24.03c0.53,3.64-12.52,0-12.52,0
			l-13.8-5.27l-1.68-34.22L177.99,188.84z"/>
		<path class="st6" d="M167.97,208.42l12.18-7.08c0,0-1.56,14.23-3.28,22.79c-1.72,8.56,1.04,28.11,1.04,28.11l-22.12-0.52
			l-0.72-19.03"/>
		<path class="st7" d="M165.75,220.08c0,0-3.87,12.36-3.32,14.95c0.55,2.58,16.44,4.98,23.16,13.29
			c6.73,8.3-23.22,12.36-23.22,12.36l-18.4,4.24l-27.12-28.6l4.98-13.65l19.21,7.38l4.22-16.79L165.75,220.08z"/>
		<path class="st27" d="M165.75,220.08c0,0-3.81,12.88-3.32,14.95c0.49,2.06,14.43,6.8,14.43,6.8s-15.65,5.47-25.15-1.24
			c-9.49-6.71-7.12-23.77-7.12-23.77L165.75,220.08z"/>
		<path class="st6" d="M148.8,179.59l-10.76-7.67c0,0-12.29,14.48-14.47,43.25l12.61,10.29l5.97,0.12l10-29.38L148.8,179.59z"/>
		<path class="st7" d="M141.86,187.92c3.86-11.69,12.82-20.4,26.66-16.04c21.27,6.7,11.87,42.67-2.27,51.17
			c-8.58,5.15-20.09,1.58-23.66-6.32C138.96,208.69,138.76,197.34,141.86,187.92z"/>
		<path class="st13" d="M180.11,194.89c0.07-4.91,0.21-9.67-1.38-13.77l-12.44,2.78c0,0-4.04,8.86-4.71,13.63
			c-1.47,10.59,2.47,11.14-1.37,13.37c-3.1,1.81-0.33,8.93-4.43,14.63c3.99,0.33,11.21-2.35,13.82-5.14
			C176.3,213.25,179.95,205.9,180.11,194.89z"/>
		<g class="st2">
			<path class="st28" d="M167.97,357.58c0,0,14.05,26.19,16.53,85.51H63.77c0,0-0.08-27.5,10.87-62.14s22.89-42.7,22.89-42.7"/>
			<g>
				<path class="st28" d="M95.22,355.27c0,0-12.55,14.2-14.34,63.19c0,0,10.75-45.4,25.09-59.15"/>
				<path class="st28" d="M162.06,356.41c0,0,10.66,15.67,6.27,64.49c0,0-4.95-46.4-17.44-61.83"/>
				<path class="st28" d="M114.57,356.9c0,0-9.18,16.58-0.33,64.8c0,0,0.68-46.66,11.71-63.17"/>
				<path class="st28" d="M131.13,357.21c0,0-5.19,21.98,2.62,74.99c0,0,3.2-51.26,9.01-73.31"/>
			</g>
		</g>
		<path class="st6" d="M177.88,168.04c0,0,2.34,22.03-15.19,22.81c-17.53,0.78-16.97-4.75-25.36,5.35c-4.4,5.3-6.04-9.11-4.75-15.08
			C134.81,170.77,158.86,149.01,177.88,168.04z"/>
		<path class="st6" d="M170.05,174.71c0,0,4.24,25.09,10.09,26.63c7.8,2.05,9.59-29.42-5.05-35.64c-13.14-5.58-4.9,10.55-4.9,10.55
			l8.54,4.88"/>
		<path class="st7" d="M159.31,276.8l18.6-24.56c0.33-0.43,0.89-0.62,1.41-0.46c3.55,1.13,16.62,6.76,16.34,28.31
			c-0.31,23.42-4.02,44.8-4.47,47.31c-0.03,0.17-0.03,0.32,0.01,0.49c0.73,3.29,7.49,41.8,10.66,51.19
			c3.33,9.85,4.45,17.48,1.12,24.47s-10.94,9.12-11.42,7.79c-0.43-1.18,3.85-5.75,3.93-9.44c0.01-0.25,0.15-0.48,0.12-0.73
			l-0.5-3.97c-0.15-1.21-1.74-1.56-2.39-0.52l-1.55,2.5c-0.02,0.03-0.04,0.06-0.05,0.09l-0.76,1.48c-0.6,1.16-2.35,0.81-2.44-0.49
			c-0.24-3.17,0.55-6.94,0.31-7.69c-0.36-1.08,1.4-6.31,2.5-8.26c0.25-0.45,0.22-0.99-0.09-1.41c-2.93-3.92-17.63-23.86-20.14-31.94
			c-2.65-8.51-10.61-67.05-11.44-73.21C159.01,277.41,159.1,277.07,159.31,276.8z"/>
		<path class="st7" d="M113.74,241.82l4.61-10.91l-18.13-52.19c-0.67-1.36-1.06-2.85-1.16-4.36l-3.44-53.1l-14.27-3.36l-4.42,57.62
			c-0.56,6.87-0.04,13.78,1.56,20.49l21.06,67.69L113.74,241.82z"/>
		<path class="st10" d="M176.87,241.82l-21.8,28.77c0,0,8.58,63.73,12.24,80.01c12.84-18.41,23.8-23.52,23.8-23.52
			s4.68-25.34,5.05-53.27C196.53,245.87,176.87,241.82,176.87,241.82z"/>
		<g class="st2">
			<path class="st3" d="M96.44,130.37c0,0-1.42-7.54-0.64-13.4c0.78-5.85,2.05-7.1,2.75-12.1c0.7-5,3.46-12.38,2.71-12.66
				c-0.75-0.28-3.54-1.03-4.77,2.43c-1.22,3.45-2.79,6.94-2.79,6.94l-3.77-16.22c0,0-1.42-6.4-3.88-5.6
				c-2.51,0.82,1.9,13.38,0.92,13.81c-1.4,0.61-4.22-6.99-4.22-6.99s-2.72-8.3-5.2-7.54c-2.47,0.75,3.63,14.43,3.63,14.43
				s0.55,2.43-0.94,1.71c-1.48-0.72-5.51-11.95-7.87-11.71c-2.36,0.23,2.15,9.37,2.15,9.37s3.27,4.91,1.23,5.21
				c-2.04,0.3-6.74-8-8.27-7.04c-1.54,0.97,2.53,7.21,4.35,9.35c1.82,2.14,3.76,5.66,4.5,8.68c0.74,3.02,1.82,7.01,4.97,8.6
				l0.79,10.47L96.44,130.37z"/>
			<path class="st4" d="M93.26,101.99c0,0-4.39,6.59-4.28,9.78l-1.39-4.98C87.59,106.8,91.67,103.51,93.26,101.99z"/>
		</g>
		<path class="st10" d="M100.22,178.72c-0.67-1.36-1.06-2.85-1.16-4.36c0,0-7.96,11.99-21.81,14.79c0.29,2.31,0.7,4.6,1.24,6.86
			l18.48,77.9l16.78-32.09c0,0,12.34-15,9.21-19.16C112.25,208.42,100.22,178.72,100.22,178.72z"/>
		<path class="st10" d="M157.74,245.23c6.31,0.24,14.16-0.25,19.12-3.41c0,0,11.09,4.63,13.88,15.26
			c2.8,10.63-11.82,24.13-13.88,40.87c-2.06,16.74-5.14,42.19-5.14,42.19s5.21,26.34-1.73,30.23c-6.94,3.89-16.45,1.42-24,0
			c-7.55-1.42-19.86,5.05-31.32,2.09c-11.47-2.95-16.5-10.23-23.77-10.23c-7.27,0-14.54-1.4-12.59-9.23
			c1.96-7.83,13.98-38.59,14.26-47.82c0.28-9.23,3.64-40.27,3.64-40.27s10.58-41.38,22.67-43.61c4.68-0.86,11.85,6.54,11.85,6.54
			s0.88,2.42,3.44,5.67C139.85,240.74,148.56,244.89,157.74,245.23z"/>
		<path class="st11" d="M179.1,283.09c0,0-7.99,46.22-7.37,57.05c0.49,8.74,0.64,3.73,0.64,3.73l8.65-9.3
			C181.01,334.57,178.06,313.94,179.1,283.09z"/>
		<path class="st6" d="M134.81,209.58c0,0-7.27-14.76-10.35-0.83c-3.08,13.93-0.45,23.47,0.51,31.8
			c1.8,15.67-10.19,23.82-10.19,23.82s26.87,6.63,27.02-12.65c0.15-19.68-2.12-15.32,0.78-29.4
			C143.34,218.67,131.18,218.28,134.81,209.58z"/>
		<path class="st11" d="M85.38,225.58l17.55,36.93l-9.33,33.69c0,0,1.22-17.98,2.03-25.62C96.22,264.91,85.38,225.58,85.38,225.58z"
			/>
		<path class="st7" d="M144.06,194.35c0,0-0.86-6.59-5.56-3.45c-4.7,3.15-3.34,16.08,4.74,12.67"/>
		<g class="st2">
			<path class="st3" d="M175.68,200.71c0,0,2.5-5.1,5.44-1.27c2.94,3.83-1.71,13.92-7.31,8.95"/>
			<path class="st4" d="M175.68,200.71c0,0,2.5-5.1,5.44-1.27c2.94,3.83-1.71,13.92-7.31,8.95"/>
		</g>
	</g>
	<g class="st0">
		<path class="st6" d="M616.09,177.43c0,0-4.38,4.04-0.99,1.52c7-5.2,23.76-2.87,27.06,17.96c2.67,16.88-0.46,23.56,13.84,27.59
			c8.98,2.53,15.05,8.48,17.74,17.63c2.69,9.15,2.78,18.38,12.78,29.34s-5.8,29.79-20.3,30.85c-14.5,1.06-59.49-4.55-59.49-4.55
			L616.09,177.43z"/>
		<path class="st6" d="M620.96,176.53c0,0,0.07-2.46-6.96-3.53c-15.21-2.32-24.88,7.67-28.95,22.52
			c-4.08,14.91,2.34,19.18-10.44,27.02c-12.78,7.84-19,10.06-21.03,27.49c-2.03,17.43,6.68,16.49,0,27.56
			c-6.68,11.07,7.55,24.72,7.55,24.72l22.66-2.9l14.23-1.45l12.78-0.29l8.42-32.24L620.96,176.53z"/>
		<path class="st6" d="M596.53,195.17c0,0-10.09,7.94-4.15,27.37c0,0,3.18,5.18-6,9.37c-9.19,4.19-29.17,15.47-23.69,40.29
			c5.48,24.82,48.34,18.05,48.34,18.05l44.8-3.87c0,0,17.73,6.03,18.05-3.59c0.32-9.62-3.55-31.05-14.84-40.53
			c-9.88-8.29-25.46-11.52-24.34-19.71c2.04-14.89-11.1-21.51-11.1-21.51L596.53,195.17z"/>
		<polygon class="st15" points="587.57,370.73 565.97,390.39 565.37,443.09 611.74,443.09 627.73,379.67 		"/>
		<polygon class="st29" points="587.57,370.73 565.97,390.39 565.37,443.09 611.74,443.09 627.73,379.67 		"/>
		<path class="st30" d="M612.01,379.83l-4.28,19.01c-0.85,3.79-2.21,7.45-4.02,10.88c-4.11,7.78-11.21,21.65-9.11,20.72
			c2.26-1,5.7-3.75,7.13-4.93l-0.18,0.8l-9.53,16.77h6.28h-0.2h13.64l11.28-36.9L612.01,379.83z"/>
		<path class="st15" d="M613.44,384.35l34.31-23.51c10.16-6.96,23.89,0.3,26.29,12.38c4.87,24.41-2.6,28.98-7.06,48.57l-6.13,21.29
			h-44.42L613.44,384.35z"/>
		<g class="st2">
			<path class="st3" d="M530.66,269.9c0,0-2.99-7.08-3.47-12.98c-0.47-5.9,0.51-7.39,0.13-12.43c-0.38-5.04,0.76-12.85-0.03-12.97
				c-0.8-0.12-3.69-0.25-4.15,3.39s-1.26,7.39-1.26,7.39l-7.13-15.08c0,0-2.75-5.96-4.99-4.66c-2.28,1.33,4.69,12.7,3.83,13.33
				c-1.24,0.9-5.62-5.95-5.62-5.95s-4.42-7.55-6.68-6.28c-2.26,1.26,6.61,13.36,6.61,13.36s1.05,2.26-0.56,1.87
				c-1.6-0.39-7.93-10.53-10.18-9.8c-2.26,0.73,4.09,8.72,4.09,8.72s4.24,4.12,2.31,4.85c-1.94,0.73-8.29-6.41-9.59-5.14
				c-1.3,1.27,4,6.52,6.24,8.23c2.23,1.71,4.88,4.74,6.24,7.54c1.36,2.8,3.27,6.47,6.68,7.37l2.99,10.08L530.66,269.9z"/>
			<path class="st4" d="M521.54,242.79c0,0-2.9,7.38-2.12,10.49L517,248.7C517,248.7,520.29,244.61,521.54,242.79z"/>
		</g>
		<path class="st31" d="M641.7,245.36c0,0-14.98,3.06-39.95,0.76c-30.82-2.84-30.01,12.41-28.69,35.61
			c1.33,23.21,2.7,51.13,2.7,51.13s-12.69,53.66-9.79,57.53c2.9,3.87,74.09,22.16,108.9-0.08c0,0,5.84-9.62-10.62-48.54
			c-13.4-31.69-4.97-63.71-4.97-63.71S666.05,243.87,641.7,245.36z"/>
		<path class="st31" d="M589.01,246.37c0,0-9.26-2.22-18.42,6.41c-9.14,8.61-21.09,49.13-21.09,49.13l-21.85-42.59
			c0,0-4.77,2.82-14.68,4.26c0,0,2.31,91.84,31.18,89.06c13.61-1.31,35.87-28.39,35.87-28.39l1.11-65.54L589.01,246.37z"/>
		<path class="st31" d="M573.06,293l2.13,36.73c0,0-18.63,21.96-31.05,22.92c0,0,11.94-6.06,16.57-14.53
			c4.4-8.04-0.74-9.89,0.94-12.5C566.98,317.29,573.06,293,573.06,293z"/>
		<polygon class="st31" points="639.13,277.59 651.41,322.31 622.05,364.93 645.53,320.88 		"/>
		<polygon class="st31" points="640.91,358.13 612,394.86 671.4,360.89 664.25,341.77 		"/>
		<path class="st32" d="M597.22,392.25c-0.53-1.28,1.2-2,5.59-3.82c0.16-0.07,0.96-0.99,1.15-1.07c0.69-0.36-5.49,2.41-6.13,1.26
			c-0.85-1.52,0.35-2.37,5.9-4.73c3.58-1.52,7-2.73,7.31-4.06c0.82-3.43-8.93-2.31-5.26-4.32c1.22-0.67,4.45-1.77,6.13-2.23
			c3.21-0.88,2.73-0.95,8.83-1.17c9.58-0.34,16.64-15.74,14.15-4.37c-0.83,3.81-1.95,7.79-4.5,11.45
			c-5.06,7.28-13.24,13.48-18.39,15.66c-0.33,0.14-0.66,0.29-0.98,0.43c-2.57,1.26-5.04,1.76-5.51,1.16
			c-0.72-0.92,2.34-2.63,4.75-3.61c0.69-0.28-7.95,3.18-8.76,2.16c-0.86-1.08,3.01-2.9,5.86-4.09
			C608.14,390.58,598.03,394.2,597.22,392.25z"/>
		<path class="st31" d="M635.49,246.98h0.97c0,0,20.72-8.07,31.36,12.06c7.45,14.11,12.84,47.42,14.41,65.01
			c0.7,7.85-1.56,15.69-6.42,21.89c-8,10.22-25.03,24.98-44.07,37.53l-10.78-14.05l30.46-47.12l-16.81-44.25
			C630.51,267.28,627.33,255.12,635.49,246.98z"/>
		<path class="st7" d="M603.63,226.7l-1.86-1.53l0.1,11.43c0.02,2.35-1.39,4.48-3.56,5.38l-8.27,3.41c0,0,11.28,7.66,26.06,7.48
			c12.84-0.16,24.46-7.27,24.46-7.27l-6.46-2.52c-2.09-0.81-3.51-2.77-3.65-5l-0.98-15.53L603.63,226.7z"/>
		<path class="st33" d="M604.27,222.54l-2.96-2.89l0,11.38c0,0,5.16,14.88,19.65,15.94c14.65,1.08,20.85-0.63,20.74-1.61
			c0,0-10.84-1.32-11.16-6.4c-0.32-5.08-1.07-16.41-1.07-16.41H604.27z"/>
		<path class="st7" d="M592.49,201.17c0.95-13.21,8.02-24.65,23.59-23.74c23.95,1.4,23.6,41.4,11.08,53.97
			c-7.59,7.63-20.55,6.93-26.35-0.38C594.92,223.59,591.73,211.8,592.49,201.17z"/>
		<path class="st21" d="M634.22,198.38c-1.22-5.14-2.32-10.14-5.06-14l-12.25,6.17c0,0-1.89,10.31-1.33,15.45
			c1.25,11.43,5.51,10.97,2.09,14.31c-2.76,2.7,2,9.4-0.77,16.42c4.25-0.7,10.9-3.93,12.66-7.65
			C633.84,220.11,636.95,209.91,634.22,198.38z"/>
		<polygon class="st31" points="553.58,317.13 549.5,301.91 551.54,295.34 		"/>
		<path class="st6" d="M585.85,199.11c0.67-6.8,6.53-24.25,28.14-26.11c8.26-0.71,8.06,13.72,2.19,21.42
			c-3.82,5.01-8.05,5.14-14.22,7.08c-11.84,3.71-9.59,21.05-9.59,21.05S585.31,204.58,585.85,199.11z"/>
		<path class="st6" d="M616.73,187.29c0,0,1.21,10.21,9.9,10.95c14.59,1.25,3.6,27.2,11.51,27.2c3.35,0-0.2-18.75-0.2-18.75
			l-1.73-11.78l-3.24-10.4l-4.48-2.89l-9.47-5l-3.9,3.71L616.73,187.29z"/>
		<path class="st7" d="M598,207.31c0,0-0.4-5.46-5.21-3.68c-4.81,1.78-4.53,15.2,4.35,14.06"/>
		<g class="st2">
			<path class="st3" d="M630.54,207.02c0,0,0.4-5.46,5.21-3.68c4.81,1.78,4.53,15.2-4.35,14.06"/>
			<path class="st34" d="M630.54,207.02c0,0,0.4-5.46,5.21-3.68c4.81,1.78,4.53,15.2-4.35,14.06"/>
		</g>
	</g>
</g>
</svg>
